<?xml version="1.0" encoding="utf-8"?>
<!-- Generator: Adobe Illustrator 19.2.0, SVG Export Plug-In . SVG Version: 6.00 Build 0)  -->
<svg version="1.1" id="Layer_1" xmlns="http://www.w3.org/2000/svg" xmlns:xlink="http://www.w3.org/1999/xlink" x="0px" y="0px"
	 viewBox="0 0 212.4 38.4" style="enable-background:new 0 0 212.4 38.4;" xml:space="preserve">
<path d="M2.3,26.8C0.8,25.1,0,22.6,0,19.2c0-3.3,0.8-5.9,2.4-7.8S6.2,8.6,9,8.6c1.9,0,3.5,0.4,4.6,1.3s1.7,2.1,1.7,3.6
	c0,0.8-0.2,1.5-0.5,2c-0.4,0.5-0.8,0.8-1.4,0.8c-0.5,0-0.9-0.2-1.2-0.7c0.5,0,0.8-0.2,1.1-0.7c0.2-0.4,0.4-0.9,0.4-1.5
	c0-1.2-0.5-2.2-1.4-2.8c-0.9-0.6-2.1-1-3.4-1c-2.1,0-3.8,0.8-5.1,2.4c-1.3,1.6-1.9,3.9-1.9,6.9c0,3.2,0.7,5.5,2,6.9s3,2.1,5.1,2.1
	c1.5,0,2.8-0.4,4-1.1c1.1-0.7,1.8-1.9,2.2-3.4c0.4,0.1,0.6,0.4,0.6,0.8c0,0.2-0.1,0.6-0.2,0.9c-0.5,1.4-1.3,2.4-2.5,3.1
	s-2.6,1-4.3,1C5.9,29.4,3.8,28.5,2.3,26.8z"/>
<path d="M36.6,28.8c-0.3,0.3-0.6,0.4-1,0.4c-0.3,0-0.5-0.1-0.7-0.3s-0.3-0.5-0.3-0.8V17c0-2.4-0.4-4.3-1.2-5.4
	c-0.8-1.2-2-1.8-3.8-1.8c-1,0-2,0.3-3,0.9s-1.8,1.6-2.5,3c-0.7,1.4-1,3.2-1,5.4c0,3.8,0,6.3,0,7.3c0,1.1,0.1,1.8,0.3,2.3
	c-0.3,0.3-0.6,0.4-1,0.4c-0.3,0-0.5-0.1-0.7-0.3s-0.3-0.5-0.3-0.8V1.1c0-0.3,0.1-0.6,0.3-0.8C21.9,0.1,22.1,0,22.4,0h0.1
	c0.3,0,0.6,0.1,0.9,0.4c-0.2,0.6-0.3,1.9-0.3,3.9v9.1c0.6-1.6,1.5-2.8,2.7-3.7c1.2-0.9,2.6-1.3,4.1-1.3c4.2,0,6.3,2.8,6.3,8.4V25
	C36.3,26.8,36.4,28.1,36.6,28.8z"/>
<path d="M57.3,25.1c0,0.3-0.1,0.6-0.2,0.9c-0.5,1.1-1.3,1.9-2.5,2.5s-2.6,0.9-4.2,0.9c-2.7,0-4.9-0.9-6.4-2.6
	c-1.5-1.7-2.3-4.2-2.3-7.6s0.8-5.9,2.3-7.8c1.5-1.9,3.8-2.8,6.7-2.8c2,0,3.6,0.5,4.8,1.4c1.2,1,1.8,2.3,1.8,4c0,1.9-0.8,3.4-2.4,4.4
	S51,19.9,48,19.9c-1.5,0-3-0.1-4.5-0.4c0.1,2.9,0.8,5.1,2.2,6.4c1.3,1.3,3,2,5,2c1.5,0,2.8-0.3,3.9-0.9c1.1-0.6,1.8-1.6,2.2-2.8
	C57.1,24.4,57.3,24.7,57.3,25.1z M45.5,12c-1.3,1.5-1.9,3.7-2,6.6c1.4,0.2,2.9,0.4,4.6,0.4c4.9,0,7.4-1.7,7.4-5
	c0-1.5-0.5-2.6-1.4-3.2c-0.9-0.7-2.1-1-3.5-1C48.4,9.8,46.7,10.5,45.5,12z"/>
<path d="M73.3,9.6c0.8,0.7,1.1,1.6,1.1,2.8c0,0.7-0.2,1.3-0.5,1.8c-0.4,0.5-0.7,0.8-1.2,0.8h-0.2c-0.2,0-0.4,0-0.6-0.1
	c0.3-0.4,0.5-0.8,0.6-1.2s0.2-0.8,0.2-1.2c0-1.8-0.9-2.7-2.7-2.7c-1.3,0-2.5,0.7-3.5,2.2S65,15.8,65,19.1c0,3.8,0,6.2,0,7.3
	s0.1,1.8,0.3,2.4c-0.3,0.3-0.6,0.4-1,0.4c-0.3,0-0.5-0.1-0.7-0.3s-0.3-0.5-0.3-0.8v-16c0-0.7-0.1-1.2-0.3-1.5
	c-0.2-0.3-0.5-0.5-0.9-0.5c-0.5,0-0.9,0.2-1.1,0.7c-0.3-0.3-0.4-0.6-0.4-0.9s0.2-0.6,0.5-0.8c0.3-0.2,0.7-0.3,1.3-0.3
	c0.8,0,1.5,0.3,1.9,0.9s0.6,1.5,0.6,2.6v1c0.4-1.5,1.1-2.7,2-3.5s2-1.2,3.3-1.2C71.5,8.6,72.5,9,73.3,9.6z"/>
<path d="M89.8,9.6c0.8,0.7,1.1,1.6,1.1,2.8c0,0.7-0.2,1.3-0.5,1.8C90,14.7,89.7,15,89.2,15h-0.1c-0.2,0-0.4,0-0.6-0.1
	c0.3-0.4,0.5-0.8,0.6-1.2s0.2-0.8,0.2-1.2c0-1.8-0.9-2.7-2.7-2.7c-1.3,0-2.5,0.7-3.5,2.2s-1.5,3.8-1.5,7.1c0,3.8,0,6.2,0,7.3
	s0.1,1.8,0.3,2.4c-0.3,0.3-0.6,0.4-1,0.4c-0.3,0-0.5-0.1-0.7-0.3s-0.3-0.5-0.3-0.8v-16c0-0.7-0.1-1.2-0.3-1.5
	c-0.2-0.3-0.5-0.5-0.9-0.5c-0.5,0-0.9,0.2-1.1,0.7c-0.3-0.3-0.4-0.6-0.4-0.9s0.2-0.6,0.5-0.8C78,8.9,78.4,8.8,79,8.8
	c0.8,0,1.5,0.3,1.9,0.9s0.6,1.5,0.6,2.6v1c0.4-1.5,1.1-2.7,2-3.5s2-1.2,3.3-1.2C88.1,8.6,89.1,9,89.8,9.6z"/>
<path d="M110.6,27.1c0,7.5-2.9,11.3-8.7,11.3c-1.7,0-3.1-0.4-4.3-1.1c-1.2-0.7-1.8-1.8-1.8-3.2c0-0.7,0.1-1.3,0.4-1.7
	c0.3-0.5,0.6-0.7,1.1-0.7c0.4,0,0.7,0.1,0.9,0.4c-0.6,0.3-0.8,0.9-0.8,1.7c0,1.2,0.5,2.1,1.4,2.6s2,0.8,3.2,0.8
	c2.5,0,4.3-0.8,5.4-2.5c1.1-1.7,1.7-4.4,1.7-8v-2.5c-0.6,1.7-1.4,2.9-2.7,3.9c-1.2,0.9-2.7,1.4-4.4,1.4c-1.9,0-3.4-0.7-4.3-2
	c-1-1.3-1.5-3.5-1.5-6.6v-8.1c0-1.7-0.1-2.9-0.3-3.6c0.3-0.3,0.6-0.4,1-0.4c0.3,0,0.5,0.1,0.7,0.3c0.2,0.2,0.3,0.4,0.3,0.8V21
	c0,2.6,0.3,4.5,1,5.6s1.8,1.7,3.4,1.7c1.8,0,3.4-0.8,4.8-2.3c1.3-1.5,2-4,2-7.4c0-3.7,0-6,0-7s-0.1-1.8-0.2-2.3
	c0.3-0.3,0.6-0.4,1-0.4c0.3,0,0.5,0.1,0.7,0.3s0.3,0.5,0.3,0.8L110.6,27.1z"/>
<path d="M117.4,28c-1.2-0.9-1.8-2.1-1.8-3.6c0-1.3,0.6-1.9,1.8-1.8c-0.2,0.4-0.2,0.9-0.2,1.4c0,1.4,0.5,2.4,1.6,3.1
	c1,0.7,2.4,1,4.1,1c1.8,0,3.2-0.3,4.3-0.9c1.1-0.6,1.6-1.5,1.6-2.6c0-0.7-0.2-1.4-0.6-1.9c-0.4-0.5-0.9-0.9-1.5-1.2
	s-1.4-0.7-2.4-1.2c-0.7-0.3-1.3-0.6-1.7-0.8c-0.2-0.1-1-0.5-2.3-1.1s-2.2-1.4-2.9-2.2c-0.6-0.9-0.9-1.9-0.9-3c0-1.6,0.6-2.7,1.8-3.5
	s2.8-1.1,4.8-1.1c2.1,0,3.8,0.4,4.9,1.1c1.1,0.7,1.7,1.7,1.7,3c0,0.7-0.3,1.2-0.8,1.4c-0.2,0.1-0.3,0.1-0.4,0.1s-0.3,0-0.6-0.1
	c0.2-0.4,0.2-0.8,0.2-1.1c0-1-0.5-1.8-1.4-2.3s-2.2-0.8-3.8-0.8c-1.4,0-2.5,0.3-3.4,0.8s-1.4,1.3-1.4,2.4c0,0.9,0.2,1.6,0.7,2.3
	c0.5,0.6,1,1.1,1.6,1.4c0.6,0.4,1.6,0.8,3,1.5l1.3,0.6c1.3,0.6,2.3,1,3,1.5c0.7,0.4,1.4,1,1.9,1.7s0.8,1.5,0.8,2.5
	c0,1.4-0.6,2.6-1.7,3.6c-1.2,1-3.1,1.5-5.9,1.5C120.4,29.4,118.5,28.9,117.4,28z"/>
<path d="M136.4,26.8c-1.5-1.7-2.3-4.2-2.3-7.6c0-3.3,0.8-5.9,2.4-7.8c1.6-1.9,3.8-2.8,6.6-2.8c1.9,0,3.5,0.4,4.6,1.3
	s1.7,2.1,1.7,3.6c0,0.8-0.2,1.5-0.5,2c-0.4,0.5-0.8,0.8-1.4,0.8c-0.5,0-0.9-0.2-1.2-0.7c0.5,0,0.8-0.2,1.1-0.7
	c0.2-0.4,0.4-0.9,0.4-1.5c0-1.2-0.5-2.2-1.4-2.8c-0.9-0.6-2.1-1-3.4-1c-2.1,0-3.8,0.8-5.1,2.4c-1.3,1.6-1.9,3.9-1.9,6.9
	c0,3.2,0.7,5.5,2,6.9c1.3,1.4,3,2.1,5.1,2.1c1.5,0,2.8-0.4,4-1.1c1.1-0.7,1.8-1.9,2.2-3.4c0.4,0.1,0.6,0.4,0.6,0.8
	c0,0.2-0.1,0.6-0.2,0.9c-0.5,1.4-1.3,2.4-2.5,3.1c-1.2,0.7-2.6,1-4.3,1C140,29.4,137.9,28.5,136.4,26.8z"/>
<path d="M156.2,26.7c-1.5-1.8-2.3-4.4-2.3-7.7s0.8-5.8,2.3-7.7c1.5-1.8,3.6-2.7,6.3-2.7c2.7,0,4.8,0.9,6.3,2.7
	c1.5,1.8,2.2,4.4,2.2,7.7s-0.8,5.8-2.2,7.7c-1.5,1.8-3.6,2.7-6.3,2.7C159.8,29.4,157.7,28.5,156.2,26.7z M167.5,25.8
	c1.2-1.6,1.8-3.9,1.8-6.8c0-2.9-0.6-5.2-1.8-6.8c-1.2-1.6-2.9-2.4-5-2.4c-2.2,0-3.8,0.8-5,2.4c-1.2,1.6-1.8,3.9-1.8,6.8
	c0,2.9,0.6,5.2,1.8,6.8c1.2,1.6,2.9,2.4,5,2.4C164.7,28.2,166.3,27.4,167.5,25.8z"/>
<path d="M191.4,11.5c0.9,1.9,1.4,4.1,1.4,6.5c0,3.6-0.7,6.4-2.1,8.4c-1.4,2-3.4,3-6.1,3c-1.4,0-2.7-0.3-3.7-1
	c-1-0.6-1.7-1.5-2.2-2.7v6.9c0,0.9,0,1.8,0.1,2.8s0.1,1.7,0.2,2c-0.3,0.3-0.6,0.4-1,0.4c-0.3,0-0.6-0.1-0.8-0.3
	c-0.2-0.2-0.3-0.5-0.3-0.8V12.1c0-0.7-0.1-1.2-0.3-1.5c-0.2-0.3-0.5-0.4-0.9-0.4c-0.5,0-0.9,0.2-1.1,0.7c-0.3-0.3-0.4-0.7-0.4-1
	s0.2-0.6,0.5-0.8c0.3-0.2,0.8-0.3,1.3-0.3c0.9,0,1.5,0.3,1.9,0.9s0.6,1.5,0.6,2.7v2.1c0.7-1.8,1.6-3.2,2.8-4.2
	c1.2-1.1,2.8-1.6,4.6-1.6C188.7,8.6,190.5,9.6,191.4,11.5z M189.3,25.6c1.2-1.7,1.7-4.2,1.7-7.5c0-5.4-1.7-8.1-5.1-8.1
	c-1.4,0-2.7,0.5-3.8,1.4c-1.1,0.9-1.9,2.2-2.5,3.8s-0.9,3.4-0.9,5.4c0,5.1,1.9,7.6,5.6,7.6C186.5,28.1,188.1,27.3,189.3,25.6z"/>
<path d="M212.4,25.1c0,0.3-0.1,0.6-0.2,0.9c-0.5,1.1-1.3,1.9-2.5,2.5c-1.2,0.6-2.6,0.9-4.2,0.9c-2.7,0-4.9-0.9-6.4-2.6
	c-1.5-1.7-2.3-4.2-2.3-7.6s0.8-5.9,2.3-7.8s3.8-2.8,6.7-2.8c2,0,3.6,0.5,4.8,1.4c1.2,1,1.8,2.3,1.8,4c0,1.9-0.8,3.4-2.4,4.4
	c-1.6,1-3.9,1.5-6.9,1.5c-1.5,0-3-0.1-4.5-0.4c0.1,2.9,0.8,5.1,2.2,6.4c1.3,1.3,3,2,5,2c1.5,0,2.8-0.3,3.9-0.9
	c1.1-0.6,1.8-1.6,2.2-2.8C212.2,24.4,212.4,24.7,212.4,25.1z M200.5,12c-1.3,1.5-1.9,3.7-2,6.6c1.4,0.2,2.9,0.4,4.6,0.4
	c4.9,0,7.4-1.7,7.4-5c0-1.5-0.5-2.6-1.4-3.2c-0.9-0.7-2.1-1-3.5-1C203.5,9.8,201.8,10.5,200.5,12z"/>
</svg>
