<?xml version="1.0" encoding="utf-8"?>
<!-- Generator: Adobe Illustrator 19.2.0, SVG Export Plug-In . SVG Version: 6.00 Build 0)  -->
<svg version="1.2" baseProfile="tiny" id="Layer_1" xmlns="http://www.w3.org/2000/svg" xmlns:xlink="http://www.w3.org/1999/xlink"
	 x="0px" y="0px" viewBox="0 0 240 58.1" xml:space="preserve">
<g>
	<path d="M5.4,4.7c2.8,0,4,1.6,4.6,2.9c0,0.1,0.1,0.2,0.1,0.3c0,0.4-0.3,0.7-0.6,0.8c-0.2,0-0.3,0.1-0.5,0.1c-0.3,0-0.6-0.1-0.8-0.5
		C7.8,7.2,7.1,6.3,5.5,6.3C3.2,6.3,2,8.2,2,11c0,2.8,1.2,4.6,3.5,4.6c1.7,0,2.4-0.8,2.8-2C8.4,13.2,8.7,13,9.1,13
		c0.2,0,0.3,0,0.5,0.1c0.4,0.1,0.7,0.3,0.7,0.7c0,0.1,0,0.2-0.1,0.4c-0.6,1.5-1.7,3-4.7,3C2,17.3,0,14.7,0,11C0,7.3,1.9,4.7,5.4,4.7
		z"/>
	<path d="M22.5,16.2c0,0.6-0.4,0.9-1,0.9c-0.6,0-1-0.3-1-0.9V9.3c0-1.8-0.8-2.8-2.4-2.8C16.9,6.5,16,7,15.3,8
		c-0.5,0.7-0.8,1.4-0.8,2.2v6c0,0.6-0.4,0.9-0.9,0.9c-0.6,0-1-0.3-1-0.9V0.8c0-0.6,0.4-0.8,1-0.8c0.6,0,0.9,0.3,0.9,0.8v5.4
		c0,0.3-0.1,0.8-0.1,1.1c0.7-1.5,1.9-2.7,4.2-2.7c2.6,0,4,1.6,4,4.2V16.2z"/>
	<path d="M26.9,11.3c0,2.7,1.4,4.3,3.7,4.3c1.6,0,2.4-0.8,2.9-1.9c0.2-0.4,0.5-0.5,0.8-0.5c0.2,0,0.3,0,0.5,0.1
		c0.4,0.1,0.7,0.4,0.7,0.8c0,0.1,0,0.3-0.1,0.4c-0.7,1.4-1.9,2.8-4.7,2.8c-3.5,0-5.6-2.5-5.6-6.2s1.9-6.3,5.5-6.3
		c3.2,0,4.9,2.5,5.1,5.3c0,0.1,0,0.1,0,0.2c0,0.8-0.4,1.2-1.1,1.2H26.9z M33.3,9.8c0.2,0,0.3-0.1,0.3-0.3c0,0,0-0.1,0-0.1
		c-0.3-1.5-1.2-3.1-3.2-3.1c-2.1,0-3.2,1.4-3.5,3.5H33.3z"/>
	<path d="M38.2,5.7c0-0.6,0.4-0.8,1-0.8c0.5,0,1,0.3,1,0.8v0.5c0,0.3-0.1,0.7-0.1,1c0.3-1,1.4-2.4,3.3-2.4c0.2,0,0.3,0,0.5,0
		c0.3,0,0.6,0,0.9,0.1c0.5,0.1,0.7,0.4,0.7,0.8c0,0.1,0,0.2,0,0.4c-0.1,0.5-0.4,0.8-0.8,0.8c-0.1,0-0.1,0-0.2,0
		c-0.3-0.1-0.6-0.1-1-0.1c-0.9,0-1.6,0.5-2.2,1.2c-0.6,0.7-0.9,1.5-0.9,2.4v6c0,0.6-0.4,0.9-1,0.9c-0.6,0-1-0.3-1-0.9V5.7z"/>
	<path d="M47.5,5.7c0-0.6,0.4-0.8,1-0.8c0.5,0,1,0.3,1,0.8v0.5c0,0.3-0.1,0.7-0.1,1c0.3-1,1.4-2.4,3.3-2.4c0.2,0,0.3,0,0.5,0
		c0.3,0,0.6,0,0.9,0.1c0.5,0.1,0.7,0.4,0.7,0.8c0,0.1,0,0.2,0,0.4c-0.1,0.5-0.4,0.8-0.8,0.8c-0.1,0-0.1,0-0.2,0
		c-0.3-0.1-0.6-0.1-1-0.1c-0.9,0-1.6,0.5-2.2,1.2c-0.6,0.7-0.9,1.5-0.9,2.4v6c0,0.6-0.4,0.9-1,0.9c-0.6,0-1-0.3-1-0.9V5.7z"/>
	<path d="M64.4,5.4c0.2-0.4,0.5-0.6,0.8-0.6c0.1,0,0.3,0,0.4,0C66,5,66.3,5.3,66.3,5.7c0,0.1,0,0.2-0.1,0.4l-5.1,12.6
		c-0.8,1.9-1.6,3.1-3.8,3.1c-0.5,0-1.1-0.1-1.6-0.3c-0.4-0.2-0.6-0.5-0.6-0.8c0-0.2,0-0.3,0.1-0.5c0.2-0.4,0.4-0.6,0.8-0.6
		c0.1,0,0.3,0,0.4,0.1c0.3,0.1,0.7,0.3,1.1,0.3c0.9,0,1.4-0.8,1.8-1.8l0.6-1.5L55.7,6.1c0-0.1-0.1-0.2-0.1-0.3
		c0-0.4,0.3-0.7,0.7-0.8c0.2,0,0.3-0.1,0.5-0.1c0.3,0,0.7,0.2,0.8,0.5l2.7,7.2c0.3,0.7,0.5,1.5,0.6,2.2c0.2-0.7,0.5-1.5,0.7-2.1
		L64.4,5.4z"/>
	<path d="M71.9,11.5c-2.7-0.5-3.8-1.4-3.8-3.5c0-2,1.7-3.3,4.5-3.3c2.4,0,3.9,1,4.5,2.6c0,0.1,0,0.2,0,0.3c0,0.4-0.4,0.7-0.8,0.8
		c-0.1,0-0.2,0-0.3,0c-0.4,0-0.8-0.2-0.9-0.6c-0.3-1-1.2-1.5-2.5-1.5c-1.7,0-2.6,0.7-2.6,1.6c0,1,0.4,1.4,2.2,1.8l1.3,0.3
		c2.8,0.6,3.9,1.4,3.9,3.7c0,2.1-1.8,3.6-4.8,3.6c-2.8,0-4.4-1.1-4.9-3c0-0.1,0-0.2,0-0.3c0-0.4,0.4-0.7,0.8-0.8c0.1,0,0.2,0,0.3,0
		c0.4,0,0.8,0.2,0.9,0.6c0.4,1.3,1.3,1.9,3,1.9c1.7,0,2.8-0.8,2.8-1.9c0-1.1-0.6-1.6-2.5-2L71.9,11.5z"/>
	<path d="M84.9,4.7c2.8,0,4,1.6,4.6,2.9c0,0.1,0.1,0.2,0.1,0.3c0,0.4-0.3,0.7-0.6,0.8c-0.2,0-0.3,0.1-0.5,0.1
		c-0.3,0-0.6-0.1-0.8-0.5c-0.4-1.1-1.1-1.9-2.7-1.9c-2.2,0-3.5,1.9-3.5,4.6c0,2.8,1.2,4.6,3.5,4.6c1.7,0,2.4-0.8,2.8-2
		c0.2-0.4,0.5-0.6,0.8-0.6c0.2,0,0.3,0,0.5,0.1c0.4,0.1,0.7,0.3,0.7,0.7c0,0.1,0,0.2-0.1,0.4c-0.6,1.5-1.7,3-4.7,3
		c-3.5,0-5.5-2.6-5.5-6.3C79.4,7.3,81.3,4.7,84.9,4.7z"/>
	<path d="M102.5,10.9c0,3.8-2.1,6.3-5.4,6.3c-3.6,0-5.6-2.5-5.6-6.3c0-3.7,2.1-6.3,5.6-6.3C100.5,4.7,102.5,7.2,102.5,10.9z
		 M93.4,11c0,2.7,1.3,4.6,3.5,4.6c2.4,0,3.6-1.8,3.6-4.7c0-2.7-1.2-4.6-3.4-4.6C94.7,6.3,93.4,8.1,93.4,11z"/>
	<path d="M106.9,20.8c0,0.5-0.4,0.8-1,0.8c-0.6,0-1-0.3-1-0.8V5.7c0-0.6,0.4-0.8,1-0.8c0.5,0,1,0.3,1,0.8V6c0,0.3,0,0.8-0.1,1.2
		c0.8-1.5,1.9-2.5,4-2.5c3.2,0,5.1,2.4,5.1,6.2s-1.9,6.4-5.2,6.4c-2,0-3.2-1-4-2.5c0.1,0.4,0.1,0.9,0.1,1.3V20.8z M106.9,10.9
		c0,2.7,1.4,4.6,3.7,4.6c2.2,0,3.4-1.9,3.4-4.6c0-2.8-1.2-4.6-3.4-4.6C108.2,6.4,106.9,8.3,106.9,10.9z"/>
	<path d="M119.8,11.3c0,2.7,1.4,4.3,3.7,4.3c1.6,0,2.4-0.8,2.9-1.9c0.2-0.4,0.5-0.5,0.8-0.5c0.2,0,0.3,0,0.5,0.1
		c0.4,0.1,0.7,0.4,0.7,0.8c0,0.1,0,0.3-0.1,0.4c-0.7,1.4-1.9,2.8-4.7,2.8c-3.5,0-5.6-2.5-5.6-6.2s1.9-6.3,5.5-6.3
		c3.2,0,4.9,2.5,5.1,5.3c0,0.1,0,0.1,0,0.2c0,0.8-0.4,1.2-1.1,1.2H119.8z M126.2,9.8c0.2,0,0.3-0.1,0.3-0.3c0,0,0-0.1,0-0.1
		c-0.3-1.5-1.2-3.1-3.2-3.1c-2.1,0-3.2,1.4-3.5,3.5H126.2z"/>
	<path d="M134,15.6c0,0.9-0.6,1.5-1.5,1.5c-0.8,0-1.5-0.6-1.5-1.5c0-0.9,0.6-1.5,1.5-1.5C133.4,14.1,134,14.7,134,15.6z"/>
	<path d="M26.9,40.8c0.8,0,1.2,0.6,1.2,1.2c0,0.7-0.4,1.3-1.2,1.3H16.9c0,0.6-0.1,1.1-0.1,1.6c-0.5,6.4-4.4,10.4-10.3,12.2
		c-0.3,0.1-0.5,0.1-0.7,0.1c-0.5,0-0.9-0.2-1.1-0.7c-0.1-0.2-0.1-0.4-0.1-0.6c0-0.6,0.3-1.1,0.9-1.3c4.8-1.6,8.1-4.3,8.5-10.3
		c0-0.3,0-0.6,0.1-0.9H1.6c-0.8,0-1.2-0.6-1.2-1.3c0-0.7,0.4-1.2,1.2-1.2h12.5c0.1-1.9,0.1-3.9,0.1-5.8c-3.5,0.5-7.6,0.9-10.4,0.9
		c-0.8,0-1.2-0.4-1.3-1.1c0,0,0-0.1,0-0.1c0-0.7,0.5-1.2,1.1-1.2c3.1,0,7.3-0.5,10.8-1c3.2-0.5,6.8-1.3,9.2-2.3
		c0.2-0.1,0.4-0.1,0.6-0.1c0.5,0,0.9,0.3,1.2,0.7c0.1,0.2,0.2,0.5,0.2,0.7c0,0.5-0.3,1-0.8,1.2c-2.1,0.7-5,1.5-7.8,2
		c0,2.2,0,4.3-0.1,6.2H26.9z"/>
	<path d="M53.5,52.9c0.7,0,1.1,0.6,1.1,1.3c0,0.6-0.4,1.2-1.1,1.2H33.4c-0.7,0-1.1-0.6-1.1-1.2c0-0.6,0.4-1.3,1.1-1.3h8.5V40.3h-7
		c-0.6,0-1.1-0.5-1.1-1.2c0-0.6,0.4-1.3,1.1-1.3h16.9c0.7,0,1.1,0.6,1.1,1.3c0,0.6-0.4,1.2-1.1,1.2h-7.3v12.6H53.5z"/>
	<path d="M65.1,45.5c0,0.8-0.6,1.3-1.5,1.3c-0.8,0-1.5-0.5-1.5-1.3V31.4c0-0.8,0.6-1.3,1.5-1.3c0.9,0,1.5,0.5,1.5,1.3V45.5z
		 M78.3,31.4c0-0.8,0.6-1.4,1.4-1.4c0.9,0,1.5,0.5,1.5,1.3v10.6c0,4.9-1.2,8.3-4,10.7c-2.6,2.2-6.3,3.7-9.9,4.1c-0.1,0-0.2,0-0.2,0
		c-0.8,0-1.3-0.5-1.5-1.1c0-0.1,0-0.2,0-0.4c0-0.6,0.4-1.2,1.2-1.3c3.3-0.4,6.5-1.7,8.5-3.6c2.1-1.9,3-4.7,3-8.9V31.4z"/>
	<path d="M89.5,45c-0.8,0-1.3-0.5-1.3-1.4c0-0.8,0.5-1.5,1.3-1.5h24.6c0.8,0,1.3,0.6,1.3,1.5c0,0.9-0.5,1.4-1.3,1.4H89.5z"/>
	<path d="M119,34.6c-0.8,0-1.2-0.6-1.2-1.4c0-0.8,0.5-1.3,1.2-1.3l16.5-0.2c1.4,0,2.3,0.5,2.9,1.3c0.3,0.5,0.4,1,0.4,1.6
		c0,0.6-0.1,1.2-0.4,1.9c-1.1,2.9-2.9,5.6-5.1,8.4c3.6,2.8,6.3,4.9,9,8.1c0.3,0.4,0.5,0.7,0.5,1.1c0,0.4-0.2,0.7-0.4,1
		c-0.3,0.3-0.7,0.5-1.1,0.5c-0.4,0-0.8-0.2-1.2-0.5c-2.4-2.9-5-5.3-8.5-8.2c-3.6,4-8.7,7.1-13.7,9c-0.3,0.1-0.5,0.2-0.8,0.2
		c-0.5,0-1-0.3-1.2-0.8c-0.1-0.2-0.1-0.4-0.1-0.6c0-0.6,0.4-1.2,1-1.4c3.9-1.5,8-3.8,11.5-7c3.4-3.1,6.1-6.9,7.3-10.5
		c0.1-0.3,0.2-0.5,0.2-0.7c0-0.5-0.4-0.7-1.2-0.7L119,34.6z"/>
	<path d="M166.4,32.5c2.5,0,3.7,1.4,3.7,4v14.1c0,2.6-1.2,3.9-3.7,3.9H148c-0.8,0-1.2-0.6-1.2-1.4c0-0.9,0.4-1.4,1.3-1.4h17.5
		c1.3,0,1.6-0.4,1.6-1.5V36.8c0-1.2-0.3-1.5-1.6-1.5h-17c-0.8,0-1.2-0.5-1.2-1.3c0-0.9,0.4-1.4,1.3-1.4H166.4z"/>
	<path d="M177.7,45c-0.8,0-1.3-0.5-1.3-1.4c0-0.8,0.5-1.5,1.3-1.5h24.6c0.8,0,1.3,0.6,1.3,1.5c0,0.9-0.5,1.4-1.3,1.4H177.7z"/>
	<path d="M223.4,32.9c0.6,0,1.6,0.1,2.4,0.6c-0.5-0.6-0.8-1.4-0.8-2.3c0-2,1.6-3.6,3.7-3.6c2,0,3.7,1.6,3.7,3.6c0,2-1.6,3.7-3.7,3.7
		c-0.7,0-1.5-0.2-2-0.6c0.5,0.6,0.6,1.3,0.6,2.2c0,0.3,0,0.6-0.1,0.9c-1.4,9.8-8.2,17.2-18.9,19.9c-0.2,0.1-0.4,0.1-0.6,0.1
		c-0.6,0-1-0.3-1.2-0.9c-0.1-0.2-0.1-0.4-0.1-0.5c0-0.6,0.4-1.2,1-1.4c9.3-2.5,15.7-8.6,16.7-17.3c0-0.2,0-0.3,0-0.5
		c0-0.8-0.4-1.1-1.4-1.1h-18.9c-0.7,0-1.2-0.6-1.2-1.4c0-0.8,0.5-1.4,1.2-1.4H223.4z M226.5,31.2c0,1.2,1,2.2,2.2,2.2
		c1.2,0,2.2-1,2.2-2.2s-1-2.1-2.2-2.1C227.5,29,226.5,30,226.5,31.2z"/>
	<path d="M240,53c0,2.8-2.3,5.1-5.1,5.1c-2.8,0-5-2.3-5-5.1c0-2.8,2.3-5,5-5C237.7,48,240,50.3,240,53z M231.9,53c0,1.6,1.4,3,3,3
		c1.6,0,3-1.4,3-3s-1.4-3-3-3C233.3,50,231.9,51.4,231.9,53z"/>
</g>
</svg>
