<?xml version="1.0" encoding="utf-8"?>
<!-- Generator: Adobe Illustrator 19.2.0, SVG Export Plug-In . SVG Version: 6.00 Build 0)  -->
<svg version="1.2" baseProfile="tiny" id="Layer_1" xmlns="http://www.w3.org/2000/svg" xmlns:xlink="http://www.w3.org/1999/xlink"
	 x="0px" y="0px" viewBox="0 0 254.2 79.9" xml:space="preserve">
<path d="M23.2,47.5c-1.5-1.7-2.3-4.2-2.3-7.6c0-3.3,0.8-5.9,2.4-7.8s3.8-2.8,6.6-2.8c1.9,0,3.5,0.4,4.6,1.3c1.1,0.9,1.7,2.1,1.7,3.6
	c0,0.8-0.2,1.5-0.5,2c-0.4,0.5-0.8,0.8-1.4,0.8c-0.5,0-0.9-0.2-1.2-0.7c0.5,0,0.8-0.2,1.1-0.7c0.2-0.4,0.4-0.9,0.4-1.5
	c0-1.2-0.5-2.2-1.4-2.8c-0.9-0.6-2.1-1-3.4-1c-2.1,0-3.8,0.8-5.1,2.4c-1.3,1.6-1.9,3.9-1.9,6.9c0,3.2,0.7,5.5,2,6.9
	c1.3,1.4,3,2.1,5.1,2.1c1.5,0,2.8-0.4,4-1.1c1.1-0.7,1.8-1.9,2.2-3.4c0.4,0.1,0.6,0.4,0.6,0.8c0,0.2-0.1,0.6-0.2,0.9
	c-0.5,1.4-1.3,2.4-2.5,3.1s-2.6,1-4.3,1C26.8,50.1,24.7,49.2,23.2,47.5z"/>
<path d="M57.5,49.5c-0.3,0.3-0.6,0.4-1,0.4c-0.3,0-0.5-0.1-0.7-0.3c-0.2-0.2-0.3-0.5-0.3-0.8l0-11.1c0-2.4-0.4-4.3-1.2-5.4
	c-0.8-1.2-2-1.8-3.8-1.8c-1,0-2,0.3-3,0.9c-1,0.6-1.8,1.6-2.5,3c-0.7,1.4-1,3.2-1,5.4c0,3.8,0,6.3,0,7.3c0,1.1,0.1,1.8,0.3,2.3
	c-0.3,0.3-0.6,0.4-1,0.4c-0.3,0-0.5-0.1-0.7-0.3c-0.2-0.2-0.3-0.5-0.3-0.8l0-26.9c0-0.3,0.1-0.6,0.3-0.8c0.2-0.2,0.4-0.3,0.7-0.3
	h0.1c0.3,0,0.6,0.1,0.9,0.4c-0.2,0.6-0.3,1.9-0.3,3.9l0,9.1c0.6-1.6,1.5-2.8,2.7-3.7c1.2-0.9,2.6-1.3,4.1-1.3c4.2,0,6.3,2.8,6.3,8.4
	v8.2C57.2,47.5,57.3,48.8,57.5,49.5z"/>
<path d="M78.2,45.8c0,0.3-0.1,0.6-0.2,0.9c-0.5,1.1-1.3,1.9-2.5,2.5c-1.2,0.6-2.6,0.9-4.2,0.9c-2.7,0-4.9-0.9-6.4-2.6
	c-1.5-1.7-2.3-4.2-2.3-7.6s0.8-5.9,2.3-7.8c1.5-1.9,3.8-2.8,6.7-2.8c2,0,3.6,0.5,4.8,1.4c1.2,1,1.8,2.3,1.8,4c0,1.9-0.8,3.4-2.4,4.4
	c-1.6,1-3.9,1.5-6.9,1.5c-1.5,0-3-0.1-4.5-0.4c0.1,2.9,0.8,5.1,2.2,6.4c1.3,1.3,3,2,5,2c1.5,0,2.8-0.3,3.9-0.9
	c1.1-0.6,1.8-1.6,2.2-2.8C78,45.1,78.2,45.4,78.2,45.8z M66.4,32.7c-1.3,1.5-1.9,3.7-2,6.6c1.4,0.2,2.9,0.4,4.6,0.4
	c4.9,0,7.4-1.7,7.4-5c0-1.5-0.5-2.6-1.4-3.2c-0.9-0.7-2.1-1-3.5-1C69.3,30.5,67.6,31.2,66.4,32.7z"/>
<path d="M94.2,30.3c0.8,0.7,1.1,1.6,1.1,2.8c0,0.7-0.2,1.3-0.5,1.8c-0.4,0.5-0.7,0.8-1.2,0.8h-0.2c-0.2,0-0.4,0-0.6-0.1
	c0.3-0.4,0.5-0.8,0.6-1.2c0.1-0.4,0.2-0.8,0.2-1.2c0-1.8-0.9-2.7-2.7-2.7c-1.3,0-2.5,0.7-3.5,2.2c-1,1.5-1.5,3.8-1.5,7.1
	c0,3.8,0,6.2,0,7.3c0,1.1,0.1,1.8,0.3,2.4c-0.3,0.3-0.6,0.4-1,0.4c-0.3,0-0.5-0.1-0.7-0.3c-0.2-0.2-0.3-0.5-0.3-0.8v-16
	c0-0.7-0.1-1.2-0.3-1.5c-0.2-0.3-0.5-0.5-0.9-0.5c-0.5,0-0.9,0.2-1.1,0.7c-0.3-0.3-0.4-0.6-0.4-0.9c0-0.3,0.2-0.6,0.5-0.8
	c0.3-0.2,0.7-0.3,1.3-0.3c0.8,0,1.5,0.3,1.9,0.9c0.4,0.6,0.6,1.5,0.6,2.6V34c0.4-1.5,1.1-2.7,2-3.5c0.9-0.8,2-1.2,3.3-1.2
	C92.4,29.3,93.4,29.7,94.2,30.3z"/>
<path d="M110.7,30.3c0.8,0.7,1.1,1.6,1.1,2.8c0,0.7-0.2,1.3-0.5,1.8c-0.4,0.5-0.7,0.8-1.2,0.8H110c-0.2,0-0.4,0-0.6-0.1
	c0.3-0.4,0.5-0.8,0.6-1.2c0.1-0.4,0.2-0.8,0.2-1.2c0-1.8-0.9-2.7-2.7-2.7c-1.3,0-2.5,0.7-3.5,2.2c-1,1.5-1.5,3.8-1.5,7.1
	c0,3.8,0,6.2,0,7.3c0,1.1,0.1,1.8,0.3,2.4c-0.3,0.3-0.6,0.4-1,0.4c-0.3,0-0.5-0.1-0.7-0.3c-0.2-0.2-0.3-0.5-0.3-0.8v-16
	c0-0.7-0.1-1.2-0.3-1.5c-0.2-0.3-0.5-0.5-0.9-0.5c-0.5,0-0.9,0.2-1.1,0.7c-0.3-0.3-0.4-0.6-0.4-0.9c0-0.3,0.2-0.6,0.5-0.8
	c0.3-0.2,0.7-0.3,1.3-0.3c0.8,0,1.5,0.3,1.9,0.9c0.4,0.6,0.6,1.5,0.6,2.6V34c0.4-1.5,1.1-2.7,2-3.5c0.9-0.8,2-1.2,3.3-1.2
	C109,29.3,110,29.7,110.7,30.3z"/>
<path d="M131.5,47.8c0,7.5-2.9,11.3-8.7,11.3c-1.7,0-3.1-0.4-4.3-1.1c-1.2-0.7-1.8-1.8-1.8-3.2c0-0.7,0.1-1.3,0.4-1.7
	c0.3-0.5,0.6-0.7,1.1-0.7c0.4,0,0.7,0.1,0.9,0.4c-0.6,0.3-0.8,0.9-0.8,1.7c0,1.2,0.5,2.1,1.4,2.6c0.9,0.5,2,0.8,3.2,0.8
	c2.5,0,4.3-0.8,5.4-2.5s1.7-4.4,1.7-8l0-2.5c-0.6,1.7-1.4,2.9-2.7,3.9c-1.2,0.9-2.7,1.4-4.4,1.4c-1.9,0-3.4-0.7-4.3-2
	c-1-1.3-1.5-3.5-1.5-6.6l0-8.1c0-1.7-0.1-2.9-0.3-3.6c0.3-0.3,0.6-0.4,1-0.4c0.3,0,0.5,0.1,0.7,0.3c0.2,0.2,0.3,0.4,0.3,0.8l0,11.1
	c0,2.6,0.3,4.5,1,5.6c0.7,1.1,1.8,1.7,3.4,1.7c1.8,0,3.4-0.8,4.8-2.3c1.3-1.5,2-4,2-7.4c0-3.7,0-6,0-7c0-1-0.1-1.8-0.2-2.3
	c0.3-0.3,0.6-0.4,1-0.4c0.3,0,0.5,0.1,0.7,0.3s0.3,0.5,0.3,0.8L131.5,47.8z"/>
<path d="M138.3,48.7c-1.2-0.9-1.8-2.1-1.8-3.6c0-1.3,0.6-1.9,1.8-1.8c-0.2,0.4-0.2,0.9-0.2,1.4c0,1.4,0.5,2.4,1.6,3.1
	c1,0.7,2.4,1,4.1,1c1.8,0,3.2-0.3,4.3-0.9c1.1-0.6,1.6-1.5,1.6-2.6c0-0.7-0.2-1.4-0.6-1.9c-0.4-0.5-0.9-0.9-1.5-1.2
	c-0.6-0.3-1.4-0.7-2.4-1.2c-0.7-0.3-1.3-0.6-1.7-0.8c-0.2-0.1-1-0.5-2.3-1.1c-1.3-0.6-2.2-1.4-2.9-2.2c-0.6-0.9-0.9-1.9-0.9-3
	c0-1.6,0.6-2.7,1.8-3.5c1.2-0.8,2.8-1.1,4.8-1.1c2.1,0,3.8,0.4,4.9,1.1c1.1,0.7,1.7,1.7,1.7,3c0,0.7-0.3,1.2-0.8,1.4
	c-0.2,0.1-0.3,0.1-0.4,0.1c-0.1,0-0.3,0-0.6-0.1c0.2-0.4,0.2-0.8,0.2-1.1c0-1-0.5-1.8-1.4-2.3c-0.9-0.5-2.2-0.8-3.8-0.8
	c-1.4,0-2.5,0.3-3.4,0.8c-0.9,0.5-1.4,1.3-1.4,2.4c0,0.9,0.2,1.6,0.7,2.3c0.5,0.6,1,1.1,1.6,1.4c0.6,0.4,1.6,0.8,3,1.5l1.3,0.6
	c1.3,0.6,2.3,1,3,1.5c0.7,0.4,1.4,1,1.9,1.7c0.5,0.7,0.8,1.5,0.8,2.5c0,1.4-0.6,2.6-1.7,3.6c-1.2,1-3.1,1.5-5.9,1.5
	C141.3,50.1,139.4,49.6,138.3,48.7z"/>
<path d="M157.3,47.5c-1.5-1.7-2.3-4.2-2.3-7.6c0-3.3,0.8-5.9,2.4-7.8c1.6-1.9,3.8-2.8,6.6-2.8c1.9,0,3.5,0.4,4.6,1.3
	c1.1,0.9,1.7,2.1,1.7,3.6c0,0.8-0.2,1.5-0.5,2c-0.4,0.5-0.8,0.8-1.4,0.8c-0.5,0-0.9-0.2-1.2-0.7c0.5,0,0.8-0.2,1.1-0.7
	c0.2-0.4,0.4-0.9,0.4-1.5c0-1.2-0.5-2.2-1.4-2.8c-0.9-0.6-2.1-1-3.4-1c-2.1,0-3.8,0.8-5.1,2.4c-1.3,1.6-1.9,3.9-1.9,6.9
	c0,3.2,0.7,5.5,2,6.9c1.3,1.4,3,2.1,5.1,2.1c1.5,0,2.8-0.4,4-1.1c1.1-0.7,1.8-1.9,2.2-3.4c0.4,0.1,0.6,0.4,0.6,0.8
	c0,0.2-0.1,0.6-0.2,0.9c-0.5,1.4-1.3,2.4-2.5,3.1c-1.2,0.7-2.6,1-4.3,1C160.9,50.1,158.8,49.2,157.3,47.5z"/>
<path d="M177.1,47.4c-1.5-1.8-2.3-4.4-2.3-7.7c0-3.3,0.8-5.8,2.3-7.7c1.5-1.8,3.6-2.7,6.3-2.7s4.8,0.9,6.3,2.7
	c1.5,1.8,2.2,4.4,2.2,7.7c0,3.3-0.8,5.8-2.2,7.7c-1.5,1.8-3.6,2.7-6.3,2.7S178.6,49.2,177.1,47.4z M188.4,46.5
	c1.2-1.6,1.8-3.9,1.8-6.8c0-2.9-0.6-5.2-1.8-6.8c-1.2-1.6-2.9-2.4-5-2.4c-2.2,0-3.8,0.8-5,2.4c-1.2,1.6-1.8,3.9-1.8,6.8
	c0,2.9,0.6,5.2,1.8,6.8c1.2,1.6,2.9,2.4,5,2.4C185.6,48.9,187.2,48.1,188.4,46.5z"/>
<path d="M212.3,32.2c0.9,1.9,1.4,4.1,1.4,6.5c0,3.6-0.7,6.4-2.1,8.4c-1.4,2-3.4,3-6.1,3c-1.4,0-2.7-0.3-3.7-1
	c-1-0.6-1.7-1.5-2.2-2.7v6.9c0,0.9,0,1.8,0.1,2.8c0.1,1,0.1,1.7,0.2,2c-0.3,0.3-0.6,0.4-1,0.4c-0.3,0-0.6-0.1-0.8-0.3
	c-0.2-0.2-0.3-0.5-0.3-0.8l0-24.6c0-0.7-0.1-1.2-0.3-1.5c-0.2-0.3-0.5-0.4-0.9-0.4c-0.5,0-0.9,0.2-1.1,0.7c-0.3-0.3-0.4-0.7-0.4-1
	c0-0.3,0.2-0.6,0.5-0.8c0.3-0.2,0.8-0.3,1.3-0.3c0.9,0,1.5,0.3,1.9,0.9c0.4,0.6,0.6,1.5,0.6,2.7v2.1c0.7-1.8,1.6-3.2,2.8-4.2
	c1.2-1.1,2.8-1.6,4.6-1.6C209.6,29.3,211.4,30.3,212.3,32.2z M210.2,46.3c1.2-1.7,1.7-4.2,1.7-7.5c0-5.4-1.7-8.1-5.1-8.1
	c-1.4,0-2.7,0.5-3.8,1.4s-1.9,2.2-2.5,3.8c-0.6,1.6-0.9,3.4-0.9,5.4c0,5.1,1.9,7.6,5.6,7.6C207.4,48.8,209,48,210.2,46.3z"/>
<path d="M233.3,45.8c0,0.3-0.1,0.6-0.2,0.9c-0.5,1.1-1.3,1.9-2.5,2.5c-1.2,0.6-2.6,0.9-4.2,0.9c-2.7,0-4.9-0.9-6.4-2.6
	c-1.5-1.7-2.3-4.2-2.3-7.6s0.8-5.9,2.3-7.8s3.8-2.8,6.7-2.8c2,0,3.6,0.5,4.8,1.4c1.2,1,1.8,2.3,1.8,4c0,1.9-0.8,3.4-2.4,4.4
	c-1.6,1-3.9,1.5-6.9,1.5c-1.5,0-3-0.1-4.5-0.4c0.1,2.9,0.8,5.1,2.2,6.4c1.3,1.3,3,2,5,2c1.5,0,2.8-0.3,3.9-0.9s1.8-1.6,2.2-2.8
	C233.1,45.1,233.3,45.4,233.3,45.8z M221.4,32.7c-1.3,1.5-1.9,3.7-2,6.6c1.4,0.2,2.9,0.4,4.6,0.4c4.9,0,7.4-1.7,7.4-5
	c0-1.5-0.5-2.6-1.4-3.2c-0.9-0.7-2.1-1-3.5-1C224.4,30.5,222.7,31.2,221.4,32.7z"/>
</svg>
